Coordinates
nRows=153
nColumns=2
inDegrees=yes
endheader
time	ankle_angle_r	
2.18736	  9.628192	
2.24986	  9.638824	
2.31235	  9.593115	
2.37485	  9.567996	
2.43734	  9.539819	
2.49984	  9.533692	
2.56234	  9.602893	
2.62483	  9.644282	
2.68733	  9.608389	
2.74982	  9.531693	
2.81232	  9.492234	
2.87482	  9.526992	
2.93731	  9.517224	
2.99981	  9.478658	
3.0623	  9.510557	
3.1248	  9.546315	
3.1873	  9.550307	
3.24979	  9.520212	
3.31229	  9.474684	
3.37478	  9.463237	
3.43728	  9.461665	
3.49978	  9.520822	
3.56227	  9.626497	
3.62477	  9.653866	
3.68726	  9.630031	
3.74976	  9.569799	
3.81226	  9.491327	
3.87475	  9.475134	
3.93725	  9.486853	
3.99974	  9.529876	
4.06224	  9.593616	
4.12474	  9.595462	
4.18723	  9.577673	
4.24973	  9.553539	
4.31222	  9.516103	
4.37472	  9.513910	
4.43722	  9.508550	
4.49971	  9.507452	
4.56221	  9.547666	
4.6247	  9.590599	
4.6872	  9.611921	
4.7497	  9.598222	
4.81219	  9.568298	
4.87469	  9.541469	
4.93718	  9.528018	
4.99968	  9.564066	
5.06218	  9.599188	
5.12467	  9.593590	
5.18717	  9.607616	
5.24966	  9.613860	
5.31216	  9.556471	
5.37466	  9.487729	
5.43715	  9.476025	
5.49965	  9.519661	
5.56214	  9.548921	
5.62464	  9.550697	
5.68714	  9.558195	
5.74963	  9.545693	
5.81213	  9.512811	
5.87462	  9.488435	
5.93712	  9.496810	
5.99962	  9.555617	
6.06211	  9.611699	
6.12461	  9.607291	
6.1871	  9.537008	
6.2496	  9.466235	
6.3121	  9.485537	
6.37459	  9.529088	
6.43709	  9.530806	
6.49958	  9.551319	
6.56208	  9.566921	
6.62458	  9.544882	
6.68707	  9.517244	
6.74957	  9.508431	
6.81206	  9.524759	
6.87456	  9.528093	
6.93706	  9.548729	
6.99955	  9.591503	
7.06205	  9.595413	
7.12454	  9.613404	
7.18704	  9.623327	
7.24954	  9.575619	
7.31203	  9.553359	
7.37453	  9.561935	
7.43702	  9.599228	
7.49952	  9.657120	
7.56202	  9.659808	
7.62451	  9.655133	
7.68701	  9.650444	
7.7495	  9.600502	
7.812	  9.568231	
7.8745	  9.551404	
7.93699	  9.571780	
7.99949	  9.639943	
8.06198	  9.654605	
8.12448	  9.652355	
8.18698	  9.647893	
8.24947	  9.591440	
8.31197	  9.556746	
8.37446	  9.556979	
8.43696	  9.576218	
8.49946	  9.608930	
8.56195	  9.618335	
8.62445	  9.625240	
8.68694	  9.596452	
8.74944	  9.523180	
8.81194	  9.482046	
8.87443	  9.478078	
8.93693	  9.501911	
8.99942	  9.517962	
9.06192	  9.523780	
9.12442	  9.581271	
9.18691	  9.606044	
9.24941	  9.557765	
9.3119	  9.531383	
9.3744	  9.526129	
9.4369	  9.548147	
9.49939	  9.601438	
9.56189	  9.634613	
9.62438	  9.643476	
9.68688	  9.612668	
9.74938	  9.576215	
9.81187	  9.572551	
9.87437	  9.569112	
9.93686	  9.601204	
9.99936	  9.645991	
10.0619	  9.639313	
10.1244	  9.624235	
10.1868	  9.603769	
10.2493	  9.581985	
10.3118	  9.580883	
10.3743	  9.567974	
10.4368	  9.573188	
10.4993	  9.610555	
10.5618	  9.616846	
10.6243	  9.578395	
10.6868	  9.538327	
10.7493	  9.529240	
10.8118	  9.521341	
10.8743	  9.487949	
10.9368	  9.472561	
10.9993	  9.502453	
11.0618	  9.535693	
11.1243	  9.507457	
11.1868	  9.458933	
11.2493	  9.473876	
11.3118	  9.500098	
11.3743	  9.523677	
11.4368	  9.566456	
11.4993	  9.569294	
11.5618	  9.584815	
11.6243	  9.617533	
11.6868	  9.552072	
